<svg xmlns="http://www.w3.org/2000/svg" viewBox="0 0 32 32"><defs><style>.cls-1{fill:#231f20;}</style></defs><g id="car"><path class="cls-1" d="M27.9,16.44l-1-4.44H28a1,1,0,0,0,0-2H26.41L25.27,5.06A2.65,2.65,0,0,0,22.68,3H14a1,1,0,0,0,0,2h8.68a.65.65,0,0,1,.64.51L25.74,16H6.26L8.68,5.51A.65.65,0,0,1,9.32,5H10a1,1,0,0,0,0-2H9.32A2.65,2.65,0,0,0,6.73,5.06L5.59,10H4a1,1,0,0,0,0,2H5.13l-1,4.44A3.84,3.84,0,0,0,2,19.85V25a1,1,0,0,0,1,1H5v.5a3.5,3.5,0,0,0,7,0V26h4a1,1,0,0,0,0-2H4V19.85A1.85,1.85,0,0,1,5.85,18h20.3A1.85,1.85,0,0,1,28,19.85V24H20a1,1,0,0,0,0,2v.5a3.5,3.5,0,0,0,7,0V26h2a1,1,0,0,0,1-1V19.85A3.84,3.84,0,0,0,27.9,16.44ZM10,26v.5a1.5,1.5,0,0,1-3,0V26Zm15,.5a1.5,1.5,0,0,1-3,0V26h3Z"/><path class="cls-1" d="M9,20a1,1,0,1,0,1,1,1,1,0,0,0-1-1Z"/><path class="cls-1" d="M24,21a1,1,0,0,0-1-1h0a1,1,0,1,0,1,1Z"/></g></svg>